<svg xmlns="http://www.w3.org/2000/svg" viewBox="0 0 720 380" role="img" aria-labelledby="title desc">
  <title id="title">German study desk</title>
  <desc id="desc">A playful study desk with books, headphones, speech bubbles, and German letters.</desc>
  <rect width="720" height="380" rx="34" fill="#fffaf0"/>
  <path d="M85 288c96 34 390 42 548-10" fill="none" stroke="#f7b267" stroke-width="18" stroke-linecap="round"/>
  <path d="M190 250c70-28 135-28 194 0v50c-62-25-126-25-194 0z" fill="#fff" stroke="#2d2740" stroke-width="5"/>
  <path d="M384 250c70-28 135-28 194 0v50c-62-25-126-25-194 0z" fill="#fff" stroke="#2d2740" stroke-width="5"/>
  <path d="M212 262c44-12 89-12 138 0M407 262c44-12 89-12 138 0" stroke="#d8a85c" stroke-width="4" stroke-linecap="round"/>
  <path d="M212 282c44-12 89-12 138 0M407 282c44-12 89-12 138 0" stroke="#d8a85c" stroke-width="4" stroke-linecap="round"/>
  <path d="M126 260c9-34 28-56 58-63 17-4 34 6 39 23l10 38" fill="none" stroke="#4b3f72" stroke-width="12" stroke-linecap="round"/>
  <rect x="105" y="244" width="35" height="61" rx="17" fill="#ff7a45" stroke="#4b3f72" stroke-width="6"/>
  <rect x="218" y="244" width="35" height="61" rx="17" fill="#ff7a45" stroke="#4b3f72" stroke-width="6"/>
  <path d="M580 242h78l-10 62h-58z" fill="#e03a26"/>
  <path d="M650 254c38-4 40 42 4 43" fill="none" stroke="#e03a26" stroke-width="12"/>
  <path d="M591 219c-18-32 30-32 12-64M631 219c-18-32 30-32 12-64" fill="none" stroke="#f6c453" stroke-width="7" stroke-linecap="round"/>
  <g font-family="Georgia, serif" font-weight="700" font-size="42">
    <text x="300" y="96" fill="#e03a26" transform="rotate(-16 300 96)">ä</text>
    <text x="390" y="76" fill="#ff7a45" transform="rotate(18 390 76)">ö</text>
    <text x="456" y="120" fill="#e03a26" transform="rotate(-8 456 120)">ü</text>
    <text x="260" y="151" fill="#4b3f72" transform="rotate(11 260 151)">ich</text>
    <text x="360" y="148" fill="#ff7a45" transform="rotate(-18 360 148)">du</text>
    <text x="492" y="177" fill="#e03a26" transform="rotate(12 492 177)">A1</text>
  </g>
  <path d="M535 76h92c19 0 35 16 35 35v26c0 19-16 35-35 35h-22l-34 30 8-30h-44c-19 0-35-16-35-35v-26c0-19 16-35 35-35z" fill="#4b3f72"/>
  <circle cx="555" cy="123" r="5" fill="#fffaf0"/><circle cx="580" cy="123" r="5" fill="#fffaf0"/><circle cx="605" cy="123" r="5" fill="#fffaf0"/>
  <circle cx="646" cy="173" r="25" fill="#ff3b30"/>
  <path d="M88 305c36-39 76-46 120-20M64 275c31-8 50-25 58-52M650 309c-22-42 7-80 65-92" fill="none" stroke="#f7a23b" stroke-width="10" stroke-linecap="round"/>
</svg>
